<svg xmlns="http://www.w3.org/2000/svg" viewBox="0 0 337.1 95.6"><defs><style>.cls-1{fill:#fff;}.cls-2{fill:#231fb5;}.cls-3{fill:#32ff25;}</style></defs><title>Asset 12</title><g id="Layer_2" data-name="Layer 2"><g id="Layer_2-2" data-name="Layer 2"><path class="cls-1" d="M111.43,44.72H72.21l-2,11.39h22.7Q79.8,69,66.72,81.7l-13-64.28H38.33L0,86.31H13.69c3.27-6,6.63-12,9.89-18H49.91c1.32,6,2.47,12,3.79,18H64.3L62.93,94h50.31L122,53.53H109.87ZM30.56,55.58c9.36-17,8.66-15.55,12.37-22.35h.17c1.86,9.63,3.36,17.05,4.42,22.35ZM81.31,82.7c9.22-9,18.54-18,27.85-27.07L103.31,82.7Z"/><path class="cls-1" d="M120.79,29a9.52,9.52,0,0,0,9.18-9.1,6.12,6.12,0,0,0-6.44-6.27,9.29,9.29,0,0,0-9.1,8.92A6.15,6.15,0,0,0,120.79,29Z"/><path class="cls-1" d="M139.24,64.5c1.06-6.56,2.12-13,3.18-19.58h64.87l1.94-12.26H144.36c.89-5,1.68-10.13,2.48-15.24H134.47c-.8,5.11-1.59,10.23-2.47,15.24h-9.72l-1.94,12.26h9.71l-4,24.41c-.89,5.6-2.92,18.81,13.51,18.81a20.52,20.52,0,0,0,9.45-2l2-12.16a15.24,15.24,0,0,1-7,1.93C137.47,75.89,138.44,69.52,139.24,64.5Z"/><path class="cls-1" d="M232.59,82.53a4.68,4.68,0,0,1-2.36-1.29,6.92,6.92,0,0,1-1.36-5.12,49.16,49.16,0,0,1,3.68-14.63l13.37,0,2-12.84H234.56l6.14-27.22H227.1l-5.77,27.22H156l-1.95,12.84H219.5c-.92,4.9-2.16,9.49-3.22,14.35-.09.47-.19.93-.27,1.4-.95,5.38-.28,11.71,3.46,15.15a12.34,12.34,0,0,0,6.24,2.82A22.61,22.61,0,0,0,238.27,94a1.71,1.71,0,0,0,.74-.47,2.26,2.26,0,0,0,.38-1.11l1.86-11.67C238.51,82.07,235.51,83.24,232.59,82.53Z"/><path class="cls-1" d="M264.22,56.62c-12.71,0-21.89,10.94-21.89,22.39,0,9.18,5.89,15,15.25,15,12.84,0,21.89-10.82,21.89-22.27C279.47,62.5,273.59,56.62,264.22,56.62Zm-5.06,28.91c-4.68,0-7.46-3.16-7.46-8,0-6.13,4.55-12.4,11.07-12.4,4.55,0,7.4,3.17,7.4,7.91C270.17,79.71,265.3,85.53,259.16,85.53Z"/><polygon class="cls-2" points="281.64 61.66 286 66.88 300.33 66.88 302.67 61.66 281.64 61.66"/><polygon class="cls-2" points="306.46 66.88 337.1 66.88 337.1 61.66 308.81 61.66 306.46 66.88"/><polygon class="cls-2" points="266.61 48.6 270.5 53.82 306.19 53.82 308.53 48.6 266.61 48.6"/><polygon class="cls-2" points="337.1 53.82 333.4 48.6 314.67 48.6 312.32 53.82 337.1 53.82"/><path class="cls-1" d="M308.08,83c-4,4-5.35,9.11-3,11.43s7.44,1,11.44-3,5.34-9.11,3-11.44S312.07,79.05,308.08,83Z"/><polygon class="cls-3" points="313.99 49.91 316.33 44.69 319.65 37.29 309.24 32.47 327.25 0 310.24 6.79 301.97 35.27 312.28 40.04 310.2 44.69 307.86 49.91 304.34 57.74 302 62.96 291.21 87 298.38 84.68 308.13 62.96 310.47 57.74 313.99 49.91"/></g></g></svg>