<svg xmlns="http://www.w3.org/2000/svg" viewBox="0 0 70.5 95.6"><defs><style>.cls-1{fill:#231fb5;}.cls-2{fill:#030226;}.cls-3{fill:#32ff25;}</style></defs><title>Asset 13</title><g id="Layer_2" data-name="Layer 2"><g id="Layer_2-2" data-name="Layer 2"><polygon class="cls-1" points="15.03 61.66 19.4 66.88 33.72 66.88 36.07 61.66 15.03 61.66"/><polygon class="cls-1" points="39.86 66.88 70.5 66.88 70.5 61.66 42.2 61.66 39.86 66.88"/><polygon class="cls-1" points="0 48.6 3.9 53.82 39.58 53.82 41.93 48.6 0 48.6"/><polygon class="cls-1" points="70.5 53.82 66.8 48.6 48.06 48.6 45.72 53.82 70.5 53.82"/><path class="cls-2" d="M41.47,83c-4,4-5.34,9.11-3,11.43s7.44,1,11.43-3,5.35-9.11,3-11.44S45.46,79.05,41.47,83Z"/><polygon class="cls-3" points="47.38 49.91 49.73 44.69 53.05 37.29 42.63 32.47 60.65 0 43.64 6.79 35.37 35.27 45.68 40.04 43.59 44.69 41.25 49.91 37.73 57.74 35.39 62.96 24.6 87 31.78 84.68 41.52 62.96 43.87 57.74 47.38 49.91"/></g></g></svg>